<svg xmlns="http://www.w3.org/2000/svg" width="263.308" height="353.71" viewBox="0 0 263.308 353.71"><defs><style>.a{fill:#5f9d35;}.b,.c,.e{fill:#fff;font-family:SegoeUI-Bold, Segoe UI;font-weight:700;}.b{font-size:208px;}.c{font-size:194px;}.d{fill:#4e9122;}.e{font-size:188px;}.f,.g{stroke:none;}.g{fill:#707070;}</style></defs><g transform="translate(255.308 390)"><g transform="translate(38 -150.359)"><g class="a" transform="translate(-292.308 -195)"><path class="f" d="M 130.6539001464844 308.4499816894531 L 130.3588256835938 308.2342529296875 L 6.080681800842285 217.3765716552734 C 4.170351505279541 216.607666015625 2.539900064468384 215.3043975830078 1.362361669540405 213.6041412353516 C 0.1440155357122421 211.8450622558594 -0.499984472990036 209.7801818847656 -0.499984472990036 207.6327209472656 L -0.499984472990036 9.999914169311523 C -0.499984472990036 4.210221767425537 4.210246086120605 -0.5000092387199402 9.999899864196777 -0.5000092387199402 L 251.3079071044922 -0.5000092387199402 C 257.0975952148438 -0.5000092387199402 261.8078308105469 4.210221767425537 261.8078308105469 9.999914169311523 L 261.8078308105469 207.6327209472656 C 261.8078308105469 209.7800750732422 261.1640625 211.8448028564453 259.9461669921875 213.6036834716797 C 258.7689208984375 215.3038177490234 257.1387329101563 216.6071166992188 255.2286224365234 217.3761291503906 L 130.948974609375 308.2342529296875 L 130.6539001464844 308.4499816894531 Z"/><path class="g" d="M 130.6539001464844 307.8305969238281 L 254.9845581054688 216.9351806640625 C 258.6882934570313 215.4703369140625 261.3078308105469 211.8577575683594 261.3078308105469 207.6327209472656 L 261.3078308105469 9.999914169311523 C 261.3078308105469 4.477490901947021 256.8312072753906 -9.230393516190816e-06 251.3079071044922 -9.230393516190816e-06 L 9.999899864196777 -9.230393516190816e-06 C 4.477515697479248 -9.230393516190816e-06 1.553109905216843e-05 4.477490901947021 1.553109905216843e-05 9.999914169311523 L 1.553109905216843e-05 207.6327209472656 C 1.553109905216843e-05 211.8581085205078 2.620746374130249 215.4710235595703 6.324784755706787 216.9356384277344 L 130.6539001464844 307.8305969238281 M 130.6539001464844 309.0693359375 L 130.0637054443359 308.6378784179688 L 5.83541202545166 217.8166198730469 C 3.859464883804321 217.0081939697266 2.17264199256897 215.6522369384766 0.9513232111930847 213.8888397216797 C -0.3252536952495575 212.0457153320313 -0.9999844431877136 209.8823699951172 -0.9999844431877136 207.6327209472656 L -0.9999844431877136 9.999914169311523 C -0.9999844431877136 3.934529304504395 3.934554100036621 -1.000009179115295 9.999899864196777 -1.000009179115295 L 251.3079071044922 -1.000009179115295 C 254.2462463378906 -1.000009179115295 257.0086364746094 0.1442600041627884 259.0862426757813 2.221952199935913 C 261.1636962890625 4.299567699432373 262.3078308105469 7.061836719512939 262.3078308105469 9.999914169311523 L 262.3078308105469 207.6327209472656 C 262.3078308105469 209.8822631835938 261.6333312988281 212.04541015625 260.3572387695313 213.8883056640625 C 259.1361389160156 215.6517333984375 257.4497375488281 217.0076446533203 255.473876953125 217.8161926269531 L 131.2440948486328 308.6378784179688 L 130.6539001464844 309.0693359375 Z"/></g><text class="b" transform="translate(-277 -3.641)"><tspan x="0" y="0">&gt;</tspan></text></g><text class="c" transform="translate(-106 -181)"><tspan x="0" y="0">_</tspan></text><g transform="translate(-209.892 -52)"><rect class="d" width="105" height="202" rx="2" transform="translate(91.892 -285)"/><path class="d" d="M90.523-96.085v63.265L194.87-93.446l-.2-.154Z" transform="translate(1.477 9.915)"/></g><text class="e" transform="translate(-118 -187)"><tspan x="0" y="0">_</tspan></text></g></svg>