<svg id="f0987c42-7922-4244-b1dc-c07e2f953846" data-name="Layer 1" xmlns="http://www.w3.org/2000/svg" width="26.8" height="25.5" viewBox="0 0 26.8 25.5"><defs><style>.a0eedf27-730c-4d30-ab87-3e6010c2158d{fill:#21c4a8;}.a39ca006-6572-4dd3-99ce-4ae74c7e6ec1{fill:#facd1a;}</style></defs><polygon class="a0eedf27-730c-4d30-ab87-3e6010c2158d" points="4.5 7.3 2.3 9.2 4.7 11.1 9.4 14.9 10.2 15.5 6.5 21.5 5.9 22.4 0 22.4 0 0 12.6 0 11.6 0.9 4.5 7.3"/><polygon class="a0eedf27-730c-4d30-ab87-3e6010c2158d" points="19.9 0 19.3 0.9 11.7 13.1 10.9 12.4 6.8 9.1 15.9 0.9 17 0 19.9 0"/><polygon class="a39ca006-6572-4dd3-99ce-4ae74c7e6ec1" points="15.9 0.9 6.8 9.1 10.9 12.4 11.7 13.1 10.2 15.5 9.4 14.9 4.7 11.1 2.3 9.2 4.5 7.3 11.6 0.9 12.6 0 17 0 15.9 0.9"/><polygon class="a39ca006-6572-4dd3-99ce-4ae74c7e6ec1" points="26.8 3.1 26.8 25.5 14.2 25.5 15.3 24.5 22.3 18.2 24.5 16.3 22.2 14.4 17.4 10.6 16.6 10 20.4 4 20.9 3.1 26.8 3.1"/><polygon class="a39ca006-6572-4dd3-99ce-4ae74c7e6ec1" points="20 16.4 9.8 25.5 6.9 25.5 7.5 24.5 15.1 12.4 15.9 13.1 20 16.4"/><polygon class="a0eedf27-730c-4d30-ab87-3e6010c2158d" points="24.5 16.3 22.3 18.2 15.3 24.5 14.2 25.5 9.8 25.5 20 16.4 15.9 13.1 15.1 12.4 16.6 10 17.4 10.6 22.2 14.4 24.5 16.3"/></svg>