<svg id="b62b72f9-be7c-4dc7-be21-5c5bdde1a9e5" data-name="Layer 1" xmlns="http://www.w3.org/2000/svg" width="176.4" height="35.7" viewBox="0 0 176.4 35.7"><defs><style>.a97e0a4e-c4f6-4265-b135-05077b49cea8{fill:#21c4a8;}.e531dea1-b11d-4e99-a419-108771df6994{fill:#facd1a;}</style></defs><polygon class="a97e0a4e-c4f6-4265-b135-05077b49cea8" points="4.5 9 2.3 11 4.7 12.8 9.4 16.7 10.2 17.3 6.5 23.2 5.9 24.2 0 24.2 0 1.8 12.6 1.8 11.6 2.7 4.5 9"/><polygon class="a97e0a4e-c4f6-4265-b135-05077b49cea8" points="19.9 1.8 19.3 2.7 11.7 14.8 10.9 14.2 6.8 10.9 15.9 2.7 17 1.8 19.9 1.8"/><polygon class="e531dea1-b11d-4e99-a419-108771df6994" points="15.9 2.7 6.8 10.9 10.9 14.2 11.7 14.8 10.2 17.3 9.4 16.7 4.7 12.8 2.3 11 4.5 9 11.6 2.7 12.6 1.8 17 1.8 15.9 2.7"/><polygon class="e531dea1-b11d-4e99-a419-108771df6994" points="26.8 4.8 26.8 27.2 14.2 27.2 15.3 26.3 22.3 20 24.5 18 22.2 16.2 17.4 12.4 16.6 11.7 20.4 5.8 20.9 4.8 26.8 4.8"/><polygon class="e531dea1-b11d-4e99-a419-108771df6994" points="20 18.1 9.8 27.2 6.9 27.2 7.5 26.3 15.1 14.2 15.9 14.8 20 18.1"/><polygon class="a97e0a4e-c4f6-4265-b135-05077b49cea8" points="24.5 18 22.3 20 15.3 26.3 14.2 27.2 9.8 27.2 20 18.1 15.9 14.8 15.1 14.2 16.6 11.7 17.4 12.4 22.2 16.2 24.5 18"/><path class="a97e0a4e-c4f6-4265-b135-05077b49cea8" d="M47.5,1.3h-11l-2.2.9V29H48.1a8.2,8.2,0,0,0,3.8-.9l.6-.4A4.5,4.5,0,0,0,54.3,25l.2-.8a4.3,4.3,0,0,0,.1-1.6V7.7C54.7,3.4,52.2,1.3,47.5,1.3Zm3.4,21.3a3.4,3.4,0,0,1-1,2.7l-.7.4a3.2,3.2,0,0,1-1.7.3H38.1V4.2h9.4c1.6,0,3.4.6,3.4,3.5Z" transform="translate(0 -0.1)"/><path class="a97e0a4e-c4f6-4265-b135-05077b49cea8" d="M64.3,29c-4.1,0-6.1-1.8-6.2-5.5V14.3c0-3.7,2.1-5.5,6.2-5.5H69c4.1,0,6.2,1.8,6.2,5.5v1L62.3,24.2a1.8,1.8,0,0,0,2,1.5H69c1.4,0,2.1-.7,2.1-2.2v-1L75,20.9h.2v2.6c0,3.7-2.1,5.5-6.2,5.5Zm-2-8.7,8.8-6c-.1-1.5-.8-2.2-2.1-2.2H64.3c-1.3,0-2,.7-2,2.2Z" transform="translate(0 -0.1)"/><path class="a97e0a4e-c4f6-4265-b135-05077b49cea8" d="M85,29,77.1,9.9l3.7-1.4h.3l5.7,14.2L92.4,8.5h.1l3.3,1.4L88.5,27.5,85.2,29Z" transform="translate(0 -0.1)"/><path class="a97e0a4e-c4f6-4265-b135-05077b49cea8" d="M147.9,7.3,144,9V30.3c0,1.5-.7,2.2-2.1,2.2h-.4l-1.6,3.1v.2h2c4.2,0,6.2-1.8,6.2-5.5V7.3Z" transform="translate(0 -0.1)"/><path class="a97e0a4e-c4f6-4265-b135-05077b49cea8" d="M148.5,2.6a2.3,2.3,0,0,1-.7,1.7,2.4,2.4,0,0,1-3.2.3l-.2-.2h-.1a2.7,2.7,0,0,1,0-3.6,2.6,2.6,0,0,1,3.2-.2l.3.2h0A2.1,2.1,0,0,1,148.5,2.6Z" transform="translate(0 -0.1)"/><path class="a97e0a4e-c4f6-4265-b135-05077b49cea8" d="M156.1,7.3,152.2,9V29h.2l3.9-1.7V7.3Z" transform="translate(0 -0.1)"/><path class="a97e0a4e-c4f6-4265-b135-05077b49cea8" d="M156.7,2.5a2.4,2.4,0,0,1-.7,1.8,2.4,2.4,0,0,1-3.2.3l-.2-.2h-.1a2.5,2.5,0,0,1,0-3.6,2.4,2.4,0,0,1,3.1-.3l.4.3h0A2.3,2.3,0,0,1,156.7,2.5Z" transform="translate(0 -0.1)"/><polygon class="a97e0a4e-c4f6-4265-b135-05077b49cea8" points="119.4 11.3 119.4 11.5 119.4 15.2 119.4 15.5 119.2 15.3 108.5 8.5 105.6 10.4 119.2 19 119.4 19.1 119.4 19.4 119.3 23 119.3 23.3 119.1 23.2 102.3 12.5 102.1 12.4 99.3 10.7 99.3 10.7 99.2 10.5 99.3 10.4 102.2 8.5 102.4 8.4 105.3 6.5 105.5 6.4 108.4 4.5 108.5 4.4 108.8 4.5 111.5 6.3 111.7 6.4 119.3 11.2 119.4 11.3"/><polygon class="e531dea1-b11d-4e99-a419-108771df6994" points="118.5 26.1 118.3 26.2 115.4 28 115.3 28.2 112.4 30 112.2 30.1 110.2 31.5 110.2 31.5 109.8 31.8 109.4 32 109.2 32.1 109 32 106.3 30.2 106.1 30.1 98.8 25.3 98.7 25.2 98.7 25 98.5 21.1 98.4 20.9 98.7 21 109.3 28 112.2 26.1 98.5 17.2 98.3 17 98.3 16.8 98.1 12.9 98.1 12.8 98.3 12.8 115.4 24 115.6 24.1 118.3 26 118.5 26.1"/><path class="a97e0a4e-c4f6-4265-b135-05077b49cea8" d="M170.6,9.5h-4.7a2.9,2.9,0,0,0-1.8.5l-.6.4V1.3l-3.3,1.4V23.8c0,3.5,1.9,5.2,5.7,5.2h4.7c4,0,5.8-1.7,5.8-5.2V14.6C176.4,11.1,174.6,9.5,170.6,9.5Zm2.5,14.3A2.3,2.3,0,0,1,172,26a.9.9,0,0,1-.7.3h-5.7c-1-.1-2.1-.6-2.1-2.6V14.6c0-2.1,1.3-2.5,2.4-2.5h4.7a2.2,2.2,0,0,1,2.5,2.5Z" transform="translate(0 -0.1)"/><path class="a97e0a4e-c4f6-4265-b135-05077b49cea8" d="M129.7,28.3c-4.1,0-6.1-1.9-6.1-5.5V20.2c0-3.6,2-5.5,6.1-5.5H134a3.6,3.6,0,0,1,2,.6V13.6c0-1.5-.6-2.2-2-2.2h-7.3v-.2l1.6-3.1H134c4.1,0,6.1,1.8,6.1,5.5V27.4L136.3,29H136V27.7a3.4,3.4,0,0,1-2,.6Zm0-3.3H134c1.4,0,2-.8,2-2.2V20.2c0-1.4-.6-2.2-2-2.2h-4.3a1.9,1.9,0,0,0-2.1,2.2v2.6A1.9,1.9,0,0,0,129.7,25Z" transform="translate(0 -0.1)"/></svg>