<?xml version="1.0" encoding="UTF-8"?>
<svg xmlns="http://www.w3.org/2000/svg" xmlns:xlink="http://www.w3.org/1999/xlink" width="50px" height="50px" viewBox="0 0 50 50" version="1.1">
<g id="surface1">
<path style=" stroke:none;fill-rule:nonzero;fill:rgb(0%,77.64706%,74.117649%);fill-opacity:1;" d="M 16 18.5 C 21.941406 18.5 27.878906 18.5 34 18.5 C 34.914062 20.324219 34.535156 23.019531 34.53125 25 C 34.53125 25.328125 34.53125 25.65625 34.535156 25.996094 C 34.53125 30.441406 34.53125 30.441406 34 31.5 C 28.058594 31.5 22.121094 31.5 16 31.5 C 15.085938 29.675781 15.464844 26.980469 15.46875 25 C 15.46875 24.671875 15.46875 24.34375 15.464844 24.003906 C 15.46875 19.558594 15.46875 19.558594 16 18.5 Z M 16 18.5 "/>
<path style=" stroke:none;fill-rule:nonzero;fill:rgb(0%,72.549021%,78.823531%);fill-opacity:1;" d="M 16.5 34.25 C 22.109375 34.25 27.71875 34.25 33.5 34.25 C 33.21875 36.503906 33.21875 36.503906 32.90625 37.378906 C 32.800781 37.667969 32.800781 37.667969 32.695312 37.960938 C 32.621094 38.160156 32.546875 38.359375 32.46875 38.5625 C 32.390625 38.769531 32.3125 38.976562 32.234375 39.191406 C 31.074219 42.203125 29.566406 45.273438 26.570312 46.777344 C 25.4375 47.21875 24.589844 47.207031 23.445312 46.804688 C 20.339844 45.316406 18.699219 41.777344 17.542969 38.695312 C 16.5 35.71875 16.5 35.71875 16.5 34.25 Z M 16.5 34.25 "/>
<path style=" stroke:none;fill-rule:nonzero;fill:rgb(0%,82.745099%,69.411767%);fill-opacity:1;" d="M 26.554688 3.195312 C 29.660156 4.683594 31.300781 8.222656 32.457031 11.304688 C 33.5 14.28125 33.5 14.28125 33.5 15.75 C 27.890625 15.75 22.28125 15.75 16.5 15.75 C 16.78125 13.496094 16.78125 13.496094 17.09375 12.621094 C 17.164062 12.429688 17.234375 12.234375 17.304688 12.039062 C 17.378906 11.839844 17.453125 11.640625 17.53125 11.4375 C 17.609375 11.230469 17.6875 11.023438 17.765625 10.808594 C 18.925781 7.796875 20.433594 4.726562 23.429688 3.222656 C 24.5625 2.78125 25.410156 2.792969 26.554688 3.195312 Z M 26.554688 3.195312 "/>
<path style=" stroke:none;fill-rule:nonzero;fill:rgb(0%,84.313726%,67.843139%);fill-opacity:1;" d="M 37 18.5 C 38.722656 18.484375 40.445312 18.46875 42.21875 18.453125 C 42.761719 18.445312 43.304688 18.441406 43.867188 18.433594 C 44.296875 18.429688 44.726562 18.429688 45.15625 18.425781 C 45.492188 18.421875 45.492188 18.421875 45.832031 18.414062 C 46.046875 18.414062 46.261719 18.414062 46.480469 18.414062 C 46.757812 18.414062 46.757812 18.414062 47.042969 18.410156 C 47.191406 18.441406 47.34375 18.46875 47.5 18.5 C 48.714844 20.324219 48.589844 22.84375 48.578125 24.96875 C 48.578125 25.230469 48.578125 25.492188 48.578125 25.761719 C 48.515625 30.484375 48.515625 30.484375 47.5 31.5 C 46.722656 31.523438 45.953125 31.527344 45.179688 31.523438 C 44.871094 31.523438 44.871094 31.523438 44.554688 31.523438 C 43.78125 31.523438 43.007812 31.519531 42.234375 31.515625 C 40.507812 31.511719 38.78125 31.503906 37 31.5 C 37 27.210938 37 22.921875 37 18.5 Z M 37 18.5 "/>
<path style=" stroke:none;fill-rule:nonzero;fill:rgb(0%,71.372551%,80.392158%);fill-opacity:1;" d="M 3.492188 18.472656 C 3.933594 18.472656 4.378906 18.472656 4.820312 18.476562 C 5.027344 18.476562 5.234375 18.476562 5.445312 18.476562 C 6.21875 18.476562 6.992188 18.480469 7.765625 18.484375 C 9.492188 18.488281 11.21875 18.496094 13 18.5 C 13 22.789062 13 27.078125 13 31.5 C 10.417969 31.523438 10.417969 31.523438 7.78125 31.546875 C 6.964844 31.558594 6.964844 31.558594 6.132812 31.566406 C 5.703125 31.570312 5.273438 31.570312 4.847656 31.574219 C 4.621094 31.578125 4.398438 31.582031 4.167969 31.585938 C 3.953125 31.585938 3.738281 31.585938 3.519531 31.585938 C 3.242188 31.585938 3.242188 31.585938 2.957031 31.589844 C 2.808594 31.558594 2.65625 31.53125 2.5 31.5 C 1.285156 29.675781 1.410156 27.15625 1.421875 25.03125 C 1.421875 24.769531 1.421875 24.507812 1.421875 24.238281 C 1.496094 18.527344 1.496094 18.527344 3.492188 18.472656 Z M 3.492188 18.472656 "/>
<path style=" stroke:none;fill-rule:nonzero;fill:rgb(0%,87.450981%,64.705884%);fill-opacity:1;" d="M 30 2 C 35.417969 2.742188 40.476562 6.269531 43.75 10.535156 C 44.367188 11.417969 44.941406 12.316406 45.5 13.234375 C 45.601562 13.398438 45.699219 13.558594 45.800781 13.726562 C 46.5 14.90625 46.5 14.90625 46.5 15.75 C 43.199219 15.75 39.898438 15.75 36.5 15.75 C 36.289062 14.964844 36.078125 14.183594 35.859375 13.375 C 34.78125 9.550781 33.347656 4.953125 30 2.5 C 30 2.335938 30 2.171875 30 2 Z M 30 2 "/>
<path style=" stroke:none;fill-rule:nonzero;fill:rgb(0%,77.64706%,74.509805%);fill-opacity:1;" d="M 36.5 34.25 C 39.800781 34.25 43.101562 34.25 46.5 34.25 C 46.238281 35.558594 45.839844 36.304688 45.140625 37.40625 C 45.027344 37.582031 44.917969 37.757812 44.800781 37.941406 C 41.59375 42.890625 36.628906 46.332031 31 48 C 30.671875 48 30.339844 48 30 48 C 30 47.835938 30 47.671875 30 47.5 C 30.183594 47.355469 30.367188 47.214844 30.554688 47.066406 C 34.101562 44.175781 35.394531 38.234375 36.5 34.25 Z M 36.5 34.25 "/>
<path style=" stroke:none;fill-rule:nonzero;fill:rgb(0%,67.450982%,83.92157%);fill-opacity:1;" d="M 3.5 34.25 C 6.800781 34.25 10.101562 34.25 13.5 34.25 C 13.816406 35.425781 13.816406 35.425781 14.140625 36.625 C 15.21875 40.449219 16.652344 45.046875 20 47.5 C 20 47.664062 20 47.828125 20 48 C 14.582031 47.257812 9.523438 43.730469 6.25 39.464844 C 5.632812 38.582031 5.058594 37.683594 4.5 36.765625 C 4.398438 36.601562 4.300781 36.441406 4.199219 36.273438 C 3.5 35.09375 3.5 35.09375 3.5 34.25 Z M 3.5 34.25 "/>
<path style=" stroke:none;fill-rule:nonzero;fill:rgb(0%,78.039217%,74.117649%);fill-opacity:1;" d="M 20 2 C 20 2.164062 20 2.328125 20 2.5 C 19.816406 2.644531 19.632812 2.785156 19.445312 2.933594 C 15.898438 5.824219 14.605469 11.765625 13.5 15.75 C 10.199219 15.75 6.898438 15.75 3.5 15.75 C 3.761719 14.441406 4.160156 13.695312 4.859375 12.59375 C 4.972656 12.417969 5.082031 12.242188 5.199219 12.058594 C 8.082031 7.609375 14.269531 2 20 2 Z M 20 2 "/>
</g>
</svg>
